<?xml version="1.0" encoding="UTF-8"?>
<svg height="1024" viewBox="0 0 1024 1024" width="1024" xmlns="http://www.w3.org/2000/svg">
  <rect fill="#8702F8" height="122.88" rx="61.44" width="544.768" x="239.616" y="849.92"/>
  <path d="M284.23,940.22L268.93,882.50L281.45,882.50L290.59,923.86L290.83,923.86L301.47,882.50L312.07,882.50L322.71,923.86L322.95,923.86L332.09,882.50L344.61,882.50L329.31,940.22L317.51,940.22L306.89,901.56L306.65,901.56L296.03,940.22ZM363.31,940.22L348.01,882.50L360.53,882.50L369.67,923.86L369.91,923.86L380.55,882.50L391.15,882.50L401.79,923.86L402.03,923.86L411.17,882.50L423.69,882.50L408.39,940.22L396.59,940.22L385.97,901.56L385.73,901.56L375.11,940.22ZM430.19,940.22L430.19,882.50L452.23,882.50Q460.89,882.50 467.04,885.83Q473.19,889.16 476.47,895.53Q479.75,901.90 479.75,911.06L479.75,911.14Q479.75,920.30 476.48,926.82Q473.21,933.34 467.06,936.78Q460.91,940.22 452.23,940.22ZM442.27,930.24L450.79,930.24Q456.19,930.24 459.90,928.07Q463.61,925.90 465.52,921.66Q467.43,917.42 467.43,911.18L467.43,911.10Q467.43,905.08 465.48,900.92Q463.53,896.76 459.81,894.62Q456.09,892.48 450.79,892.48L442.27,892.48ZM513.19,941.22Q504.77,941.22 498.59,937.62Q492.41,934.02 489.06,927.33Q485.71,920.64 485.71,911.34L485.71,911.30Q485.71,902.00 489.07,895.33Q492.43,888.66 498.60,885.08Q504.77,881.50 513.19,881.50Q520.21,881.50 525.68,884.22Q531.15,886.94 534.48,891.69Q537.81,896.44 538.35,902.58L538.39,902.96L526.63,902.96L526.47,902.28Q525.79,899.08 524.03,896.72Q522.27,894.36 519.54,893.05Q516.81,891.74 513.19,891.74Q508.57,891.74 505.17,894.11Q501.77,896.48 499.91,900.85Q498.05,905.22 498.05,911.28L498.05,911.32Q498.05,917.38 499.91,921.80Q501.77,926.22 505.19,928.60Q508.61,930.98 513.21,930.98Q516.69,930.98 519.42,929.70Q522.15,928.42 523.99,926.00Q525.83,923.58 526.59,920.16L526.67,919.76L538.43,919.76L538.39,920.18Q537.85,926.32 534.50,931.07Q531.15,935.82 525.67,938.52Q520.19,941.22 513.19,941.22ZM587.73,941.22Q579.31,941.22 573.13,937.62Q566.95,934.02 563.60,927.33Q560.25,920.64 560.25,911.34L560.25,911.30Q560.25,902.00 563.61,895.33Q566.97,888.66 573.14,885.08Q579.31,881.50 587.73,881.50Q594.75,881.50 600.22,884.22Q605.69,886.94 609.02,891.69Q612.35,896.44 612.89,902.58L612.93,902.96L601.17,902.96L601.01,902.28Q600.33,899.08 598.57,896.72Q596.81,894.36 594.08,893.05Q591.35,891.74 587.73,891.74Q583.11,891.74 579.71,894.11Q576.31,896.48 574.45,900.85Q572.59,905.22 572.59,911.28L572.59,911.32Q572.59,917.38 574.45,921.80Q576.31,926.22 579.73,928.60Q583.15,930.98 587.75,930.98Q591.23,930.98 593.96,929.70Q596.69,928.42 598.53,926.00Q600.37,923.58 601.13,920.16L601.21,919.76L612.97,919.76L612.93,920.18Q612.39,926.32 609.04,931.07Q605.69,935.82 600.21,938.52Q594.73,941.22 587.73,941.22ZM639.07,941.10Q632.57,941.10 627.80,938.43Q623.03,935.76 620.43,930.76Q617.83,925.76 617.83,918.80L617.83,918.72Q617.83,911.80 620.47,906.81Q623.11,901.82 627.88,899.14Q632.65,896.46 639.05,896.46Q645.49,896.46 650.26,899.13Q655.03,901.80 657.67,906.78Q660.31,911.76 660.31,918.72L660.31,918.80Q660.31,925.80 657.70,930.79Q655.09,935.78 650.33,938.44Q645.57,941.10 639.07,941.10ZM639.11,931.94Q641.97,931.94 644.06,930.40Q646.15,928.86 647.29,925.92Q648.43,922.98 648.43,918.80L648.43,918.72Q648.43,914.56 647.27,911.63Q646.11,908.70 644.00,907.16Q641.89,905.62 639.05,905.62Q636.25,905.62 634.14,907.17Q632.03,908.72 630.87,911.64Q629.71,914.56 629.71,918.72L629.71,918.80Q629.71,922.98 630.86,925.92Q632.01,928.86 634.12,930.40Q636.23,931.94 639.11,931.94ZM682.21,941.10Q676.81,941.10 672.89,938.42Q668.97,935.74 666.86,930.74Q664.75,925.74 664.75,918.78L664.75,918.74Q664.75,911.76 666.87,906.77Q668.99,901.78 672.90,899.12Q676.81,896.46 682.19,896.46Q685.25,896.46 687.81,897.46Q690.37,898.46 692.31,900.33Q694.25,902.20 695.41,904.80L695.65,904.80L695.65,882.50L707.33,882.50L707.33,940.22L695.65,940.22L695.65,932.92L695.41,932.92Q694.27,935.48 692.35,937.30Q690.43,939.12 687.87,940.11Q685.31,941.10 682.21,941.10ZM686.11,931.42Q688.95,931.42 691.11,929.88Q693.27,928.34 694.47,925.50Q695.67,922.66 695.67,918.80L695.67,918.76Q695.67,914.88 694.45,912.05Q693.23,909.22 691.09,907.68Q688.95,906.14 686.11,906.14Q683.21,906.14 681.08,907.66Q678.95,909.18 677.79,912.00Q676.63,914.82 676.63,918.74L676.63,918.78Q676.63,922.68 677.78,925.52Q678.93,928.36 681.07,929.89Q683.21,931.42 686.11,931.42ZM734.63,941.10Q728.07,941.10 723.34,938.40Q718.61,935.70 716.07,930.70Q713.53,925.70 713.53,918.86L713.53,918.82Q713.53,912.00 716.07,906.98Q718.61,901.96 723.24,899.21Q727.87,896.46 734.15,896.46Q740.43,896.46 745.01,899.13Q749.59,901.80 752.08,906.64Q754.57,911.48 754.57,917.96L754.57,921.56L719.27,921.56L719.27,914.20L749.05,914.20L743.51,921.08L743.51,916.58Q743.51,912.82 742.35,910.28Q741.19,907.74 739.13,906.46Q737.07,905.18 734.35,905.18Q731.63,905.18 729.53,906.50Q727.43,907.82 726.24,910.37Q725.05,912.92 725.05,916.58L725.05,921.12Q725.05,924.66 726.24,927.18Q727.43,929.70 729.63,931.04Q731.83,932.38 734.87,932.38Q737.27,932.38 739.03,931.63Q740.79,930.88 741.90,929.72Q743.01,928.56 743.41,927.34L743.49,927.10L754.21,927.10L754.11,927.56Q753.61,929.92 752.22,932.31Q750.83,934.70 748.45,936.70Q746.07,938.70 742.64,939.90Q739.21,941.10 734.63,941.10Z" fill="#FFFFFF"/>
</svg>
